<?xml version="1.0" encoding="UTF-8" standalone="no"?>
<!DOCTYPE svg PUBLIC "-//W3C//DTD SVG 1.1//EN" "http://www.w3.org/Graphics/SVG/1.1/DTD/svg11.dtd">
<svg version="1.1" xmlns="http://www.w3.org/2000/svg" xmlns:xlink="http://www.w3.org/1999/xlink" preserveAspectRatio="xMidYMid meet" viewBox="0 0 360 360" width="360" height="360"><defs><path d="M54.1 70.16L56.12 70.37L58.11 70.65L60.07 71.01L62.01 71.45L63.92 71.96L65.8 72.55L67.64 73.2L69.46 73.93L71.23 74.72L72.97 75.58L74.67 76.5L76.33 77.49L77.95 78.54L79.52 79.65L81.05 80.81L82.53 82.04L83.97 83.32L85.35 84.65L86.68 86.03L87.96 87.46L89.18 88.95L90.35 90.47L91.46 92.05L92.51 93.67L93.49 95.33L94.42 97.03L95.28 98.76L96.07 100.54L96.8 102.35L97.45 104.2L98.04 106.08L98.55 107.99L98.99 109.92L99.35 111.89L99.63 113.88L99.84 115.9L99.96 117.94L100 120L99.96 122.05L99.84 124.09L99.63 126.11L99.35 128.1L98.99 130.07L98.55 132L98.04 133.91L97.45 135.79L96.8 137.64L96.07 139.45L95.28 141.23L94.42 142.96L93.49 144.67L92.51 146.32L91.46 147.94L90.35 149.52L89.18 151.05L87.96 152.53L86.68 153.96L85.35 155.34L83.97 156.67L82.53 157.95L81.05 159.18L79.52 160.34L77.95 161.45L76.33 162.5L74.67 163.49L72.97 164.41L71.23 165.27L69.46 166.06L67.64 166.79L65.8 167.44L63.92 168.03L62.01 168.54L60.07 168.98L58.11 169.34L56.12 169.62L54.1 169.83L52.06 169.95L50 170L47.94 169.95L45.9 169.83L43.89 169.62L41.9 169.34L39.93 168.98L37.99 168.54L36.08 168.03L34.21 167.44L32.36 166.79L30.55 166.06L28.77 165.27L27.03 164.41L25.33 163.49L23.67 162.5L22.05 161.45L20.48 160.34L18.95 159.18L17.47 157.95L16.04 156.67L14.65 155.34L13.32 153.96L12.04 152.53L10.82 151.05L9.65 149.52L8.55 147.94L7.5 146.32L6.51 144.67L5.59 142.96L4.73 141.23L3.93 139.45L3.21 137.64L2.55 135.79L1.97 133.91L1.46 132L1.02 130.07L0.66 128.1L0.37 126.11L0.17 124.09L0.04 122.05L0 120L0.04 117.94L0.17 115.9L0.37 113.88L0.66 111.89L1.02 109.92L1.46 107.99L1.97 106.08L2.55 104.2L3.21 102.35L3.93 100.54L4.73 98.76L5.59 97.03L6.51 95.33L7.5 93.67L8.55 92.05L9.65 90.47L10.82 88.95L12.04 87.46L13.32 86.03L14.65 84.65L16.04 83.32L17.47 82.04L18.95 80.81L20.48 79.65L22.05 78.54L23.67 77.49L25.33 76.5L27.03 75.58L28.77 74.72L30.55 73.93L32.36 73.2L34.21 72.55L36.08 71.96L37.99 71.45L39.93 71.01L41.9 70.65L43.89 70.37L45.9 70.16L47.94 70.04L50 70L52.06 70.04L54.1 70.16ZM47.35 90.12L46.04 90.26L44.75 90.46L43.48 90.72L42.24 91.02L41.01 91.38L39.8 91.79L38.62 92.24L37.46 92.75L36.33 93.3L35.23 93.89L34.15 94.54L33.1 95.22L32.09 95.94L31.1 96.71L30.15 97.52L29.24 98.36L28.36 99.24L27.51 100.16L26.71 101.11L25.94 102.09L25.22 103.11L24.53 104.15L23.89 105.23L23.29 106.33L22.74 107.47L22.24 108.62L21.78 109.81L21.37 111.01L21.02 112.24L20.71 113.49L20.46 114.76L20.26 116.04L20.12 117.35L20.03 118.67L20 120L20.03 121.34L20.12 122.66L20.26 123.97L20.46 125.25L20.71 126.52L21.02 127.77L21.37 129L21.78 130.2L22.24 131.39L22.74 132.54L23.29 133.67L23.89 134.78L24.53 135.86L25.22 136.9L25.94 137.92L26.71 138.9L27.51 139.85L28.36 140.77L29.24 141.65L30.15 142.49L31.1 143.3L32.09 144.06L33.1 144.79L34.15 145.47L35.23 146.12L36.33 146.71L37.46 147.26L38.62 147.77L39.8 148.22L41.01 148.63L42.24 148.99L43.48 149.29L44.75 149.55L46.04 149.75L47.35 149.89L48.67 149.98L50 150L51.34 149.98L52.66 149.89L53.96 149.75L55.25 149.55L56.52 149.29L57.77 148.99L58.99 148.63L60.2 148.22L61.38 147.77L62.54 147.26L63.67 146.71L64.78 146.12L65.85 145.47L66.9 144.79L67.91 144.06L68.9 143.3L69.85 142.49L70.77 141.65L71.65 140.77L72.49 139.85L73.3 138.9L74.06 137.92L74.79 136.9L75.47 135.86L76.11 134.78L76.71 133.67L77.26 132.54L77.76 131.39L78.22 130.2L78.63 129L78.98 127.77L79.29 126.52L79.54 125.25L79.74 123.97L79.88 122.66L79.97 121.34L80 120L79.97 118.67L79.88 117.35L79.74 116.04L79.54 114.76L79.29 113.49L78.98 112.24L78.63 111.01L78.22 109.81L77.76 108.62L77.26 107.47L76.71 106.33L76.11 105.23L75.47 104.15L74.79 103.11L74.06 102.09L73.3 101.11L72.49 100.16L71.65 99.24L70.77 98.36L69.85 97.52L68.9 96.71L67.91 95.94L66.9 95.22L65.85 94.54L64.78 93.89L63.67 93.3L62.54 92.75L61.38 92.24L60.2 91.79L58.99 91.38L57.77 91.02L56.52 90.72L55.25 90.46L53.96 90.26L52.66 90.12L51.34 90.03L50 90L48.67 90.03L47.35 90.12Z" id="b4qBMoZ71"></path><path d="M30 0L70 0L70 80L30 80L30 0Z" id="g3eIenxI11"></path><path d="M280 0L320 0L320 200L280 200L280 0Z" id="a5NEHQiV"></path><path d="M140 160L180 160L180 270L140 270L140 160Z" id="bJ28W2n0A"></path><path d="M140 160L320 160L320 200L140 200L140 160Z" id="c2m7UOIC2B"></path><path d="M30 0L320 0L320 40L30 40L30 0Z" id="a1eoYAM5X3"></path><path d="M164.1 260.16L166.12 260.37L168.11 260.65L170.07 261.01L172.01 261.45L173.92 261.96L175.8 262.55L177.65 263.2L179.46 263.93L181.23 264.72L182.97 265.58L184.67 266.51L186.33 267.49L187.95 268.54L189.52 269.65L191.05 270.82L192.54 272.04L193.97 273.32L195.35 274.65L196.68 276.03L197.96 277.47L199.18 278.95L200.35 280.48L201.46 282.05L202.51 283.67L203.49 285.33L204.42 287.03L205.28 288.77L206.07 290.54L206.8 292.36L207.45 294.2L208.04 296.08L208.55 297.99L208.99 299.93L209.35 301.89L209.63 303.88L209.84 305.9L209.96 307.94L210 310L209.96 312.06L209.84 314.1L209.63 316.11L209.35 318.1L208.99 320.07L208.55 322.01L208.04 323.92L207.45 325.79L206.8 327.64L206.07 329.45L205.28 331.23L204.42 332.97L203.49 334.67L202.51 336.33L201.46 337.95L200.35 339.52L199.18 341.05L197.96 342.53L196.68 343.96L195.35 345.35L193.97 346.68L192.54 347.96L191.05 349.18L189.52 350.35L187.95 351.45L186.33 352.5L184.67 353.49L182.97 354.41L181.23 355.27L179.46 356.07L177.65 356.79L175.8 357.45L173.92 358.03L172.01 358.54L170.07 358.98L168.11 359.34L166.12 359.63L164.1 359.83L162.06 359.96L160 360L157.94 359.96L155.91 359.83L153.89 359.63L151.9 359.34L149.93 358.98L147.99 358.54L146.08 358.03L144.21 357.45L142.36 356.79L140.55 356.07L138.77 355.27L137.03 354.41L135.33 353.49L133.67 352.5L132.06 351.45L130.48 350.35L128.95 349.18L127.47 347.96L126.04 346.68L124.65 345.35L123.32 343.96L122.05 342.53L120.82 341.05L119.66 339.52L118.55 337.95L117.5 336.33L116.51 334.67L115.59 332.97L114.73 331.23L113.94 329.45L113.21 327.64L112.55 325.79L111.97 323.92L111.46 322.01L111.02 320.07L110.66 318.1L110.37 316.11L110.17 314.1L110.05 312.06L110 310L110.05 307.94L110.17 305.9L110.37 303.88L110.66 301.89L111.02 299.93L111.46 297.99L111.97 296.08L112.55 294.2L113.21 292.36L113.94 290.54L114.73 288.77L115.59 287.03L116.51 285.33L117.5 283.67L118.55 282.05L119.66 280.48L120.82 278.95L122.05 277.47L123.32 276.03L124.65 274.65L126.04 273.32L127.47 272.04L128.95 270.82L130.48 269.65L132.06 268.54L133.67 267.49L135.33 266.51L137.03 265.58L138.77 264.72L140.55 263.93L142.36 263.2L144.21 262.55L146.08 261.96L147.99 261.45L149.93 261.01L151.9 260.65L153.89 260.37L155.91 260.16L157.94 260.04L160 260L162.06 260.04L164.1 260.16ZM157.35 280.11L156.05 280.26L154.76 280.46L153.49 280.71L152.24 281.01L151.01 281.37L149.81 281.78L148.62 282.23L147.47 282.74L146.34 283.29L145.23 283.89L144.15 284.53L143.11 285.21L142.09 285.94L141.11 286.7L140.16 287.51L139.24 288.35L138.36 289.23L137.52 290.15L136.71 291.1L135.94 292.08L135.22 293.1L134.54 294.15L133.89 295.22L133.3 296.33L132.75 297.46L132.24 298.62L131.79 299.8L131.38 301L131.02 302.23L130.72 303.48L130.46 304.75L130.26 306.04L130.12 307.34L130.03 308.66L130 310L130.03 311.33L130.12 312.65L130.26 313.96L130.46 315.24L130.71 316.51L131.02 317.76L131.38 318.99L131.78 320.19L132.24 321.38L132.74 322.53L133.3 323.67L133.89 324.77L134.53 325.85L135.22 326.89L135.94 327.91L136.71 328.89L137.51 329.84L138.36 330.76L139.24 331.64L140.15 332.49L141.1 333.29L142.09 334.06L143.1 334.78L144.15 335.47L145.23 336.11L146.33 336.7L147.46 337.26L148.62 337.76L149.8 338.22L151.01 338.62L152.24 338.98L153.49 339.29L154.75 339.54L156.04 339.74L157.35 339.88L158.67 339.97L160 340L161.34 339.97L162.66 339.88L163.96 339.74L165.25 339.54L166.52 339.29L167.77 338.98L168.99 338.63L170.2 338.22L171.38 337.76L172.54 337.26L173.67 336.71L174.78 336.11L175.85 335.47L176.9 334.78L177.92 334.06L178.9 333.29L179.85 332.49L180.77 331.64L181.65 330.76L182.49 329.85L183.3 328.9L184.06 327.91L184.79 326.9L185.47 325.85L186.11 324.77L186.71 323.67L187.26 322.54L187.77 321.38L188.22 320.2L188.63 318.99L188.99 317.77L189.29 316.52L189.55 315.25L189.74 313.96L189.89 312.66L189.97 311.34L190 310L189.97 308.66L189.89 307.34L189.74 306.04L189.55 304.75L189.29 303.48L188.99 302.23L188.63 301.01L188.22 299.8L187.77 298.62L187.26 297.46L186.71 296.33L186.12 295.22L185.47 294.15L184.79 293.1L184.07 292.09L183.3 291.1L182.49 290.15L181.65 289.24L180.77 288.35L179.85 287.51L178.9 286.71L177.92 285.94L176.9 285.21L175.86 284.53L174.78 283.89L173.68 283.29L172.54 282.74L171.39 282.24L170.2 281.78L169 281.37L167.77 281.01L166.52 280.71L165.25 280.46L163.97 280.26L162.66 280.11L161.34 280.03L160.01 280L158.67 280.03L157.35 280.11Z" id="i34hX7ZWpi"></path></defs><g><g><g><use xlink:href="#b4qBMoZ71" opacity="1" fill="#ffffff" fill-opacity="1"></use></g><g><use xlink:href="#g3eIenxI11" opacity="1" fill="#ffffff" fill-opacity="1"></use></g><g><use xlink:href="#a5NEHQiV" opacity="1" fill="#ffffff" fill-opacity="1"></use></g><g><use xlink:href="#bJ28W2n0A" opacity="1" fill="#ffffff" fill-opacity="1"></use></g><g><use xlink:href="#c2m7UOIC2B" opacity="1" fill="#ffffff" fill-opacity="1"></use></g><g><use xlink:href="#a1eoYAM5X3" opacity="1" fill="#ffffff" fill-opacity="1"></use></g><g><use xlink:href="#i34hX7ZWpi" opacity="1" fill="#ffffff" fill-opacity="1"></use></g></g></g></svg>